<svg width="29" height="67" viewBox="0 0 29 67" fill="none" xmlns="http://www.w3.org/2000/svg">
<path d="M21.978 6.643V1.249H18.734V3.902L14.117 0L0 11.927H4.137V27.198H7.353V30.111H8.874V47.903V55.936V60.223L14.117 66.383L19.36 60.223V57.61L16.835 55.085L19.021 52.901L17.669 51.547L19.36 49.856V47.903V44.784L17.249 42.675L19.149 40.775L17.973 39.599L19.223 38.347L17.235 36.359L19.36 34.234V30.112H20.881V27.199H24.096V11.927H28.235L21.978 6.643ZM13.571 20.916H9.981V17.326H13.571V20.916V20.916ZM13.571 16.077H9.981V12.487H13.571V16.077V16.077ZM14.968 54.895H13.899V30.111H14.968V54.895ZM18.254 20.916H14.663V17.326H18.254V20.916ZM18.254 16.077H14.663V12.487H18.254V16.077Z" fill="white"/>
</svg>
